<?xml version="1.0" encoding="utf-8"?>
<svg version="1.0" xmlns="http://www.w3.org/2000/svg" width="630.000000pt" height="630.000000pt" viewBox="0 0 630.000000 630.000000" preserveAspectRatio="xMidYMid meet">
  <g transform="translate(0.000000,630.000000) scale(0.100000,-0.100000)" fill="#000000" stroke="none">
    <path d="M1928 4339 c-17 -9 -18 -77 -18 -1199 0 -1170 0 -1189 20 -1200 12 -7 149 -9 402 -8 l383 3 3 610 c1 335 6 613 10 617 4 4 22 -14 39 -40 17 -26 63 -92 102 -147 39 -55 91 -129 115 -165 25 -36 64 -92 87 -125 23 -33 56 -80 73 -105 17 -25 33 -47 36 -50 3 -3 17 -23 32 -45 15 -22 54 -78 87 -125 33 -47 92 -132 132 -190 39 -58 94 -135 121 -172 l50 -68 368 0 c322 0 371 2 384 16 14 14 16 136 16 1194 0 1058 -2 1180 -16 1194 -13 14 -63 16 -394 16 -314 0 -381 -2 -393 -14 -12 -12 -14 -108 -13 -616 1 -331 -1 -603 -3 -605 -5 -5 -23 18 -106 140 -37 55 -70 102 -74 105 -3 3 -10 13 -16 22 -12 20 -71 106 -119 173 -20 28 -41 58 -48 69 -7 10 -33 47 -58 82 -25 35 -65 93 -90 129 -25 36 -72 104 -105 151 -33 46 -80 114 -105 150 -25 35 -69 98 -98 139 l-53 75 -367 0 c-231 0 -374 -4 -384 -11z" style="fill: rgb(255, 255, 255);"/>
  </g>
</svg>